<svg width="134" height="97" viewBox="0 0 134 97" fill="none" xmlns="http://www.w3.org/2000/svg">
<path d="M0 41C0 29.9543 8.95431 21 20 21H102C106.418 21 110 24.5817 110 29V73C110 77.4183 106.418 81 102 81H5C2.23858 81 0 78.7614 0 76V41Z" fill="white"/>
<path d="M24.4 75.208C26.8 75.208 28.912 74.56 30.736 73.264C32.608 71.968 33.544 70.024 33.544 67.432C33.544 64.792 32.536 62.776 30.52 61.384C28.552 59.992 25.72 58.792 22.024 57.784C18.376 56.728 15.712 55.816 14.032 55.048C12.4 54.28 10.84 53.272 9.352 52.024C6.376 49.528 4.888 45.664 4.888 40.432C4.888 36.16 6.4 32.488 9.424 29.416C12.496 26.344 16.672 24.808 21.952 24.808C24.496 24.808 27.136 25.192 29.872 25.96C32.656 26.68 34.384 27.04 35.056 27.04C35.728 27.04 36.328 26.56 36.856 25.6H37.648L38.152 40.144H37C34.696 35.968 32.272 32.632 29.728 30.136C27.232 27.592 24.496 26.32 21.52 26.32C18.592 26.32 16.312 27.016 14.68 28.408C13.048 29.752 12.232 31.576 12.232 33.88C12.232 36.136 13.192 37.888 15.112 39.136C17.08 40.336 19.48 41.32 22.312 42.088C25.144 42.856 26.992 43.384 27.856 43.672C28.768 43.96 29.872 44.368 31.168 44.896C32.512 45.376 33.592 45.904 34.408 46.48C35.272 47.008 36.16 47.704 37.072 48.568C38.032 49.384 38.776 50.296 39.304 51.304C40.6 53.608 41.248 56.344 41.248 59.512C41.248 64.696 39.616 68.872 36.352 72.04C33.136 75.16 28.888 76.72 23.608 76.72C20.872 76.72 17.728 76.36 14.176 75.64C10.672 74.92 8.728 74.56 8.344 74.56C7.672 74.56 7.024 75.28 6.4 76.72H5.392L4.672 59.584H5.896C8.008 63.76 10.696 67.408 13.96 70.528C17.272 73.648 20.752 75.208 24.4 75.208ZM53.6039 76.72C51.5399 76.72 49.9799 76.12 48.9239 74.92C47.9159 73.672 47.4119 72.184 47.4119 70.456C47.4119 68.68 47.9399 67.192 48.9959 65.992C50.0999 64.792 51.6359 64.192 53.6039 64.192C55.5719 64.192 57.1319 64.696 58.2839 65.704C59.4359 66.712 60.0119 68.224 60.0119 70.24C60.0119 72.256 59.4599 73.84 58.3559 74.992C57.2999 76.144 55.7159 76.72 53.6039 76.72ZM64.7386 25.6H102.179L102.899 39.856H101.603C99.5866 35.008 97.4746 31.696 95.2666 29.92C93.0586 28.096 89.8186 27.184 85.5466 27.184H83.0266V49.432H85.4746C87.7306 49.432 89.6266 48.592 91.1626 46.912C92.6986 45.184 93.7786 42.88 94.4026 40H95.4826V61.312H94.2586C93.3946 57.712 92.2186 55.144 90.7306 53.608C89.2906 52.072 87.2986 51.304 84.7546 51.304H83.0266V74.416H85.7626C90.1786 74.416 93.9226 73.096 96.9946 70.456C100.115 67.816 102.251 64.432 103.403 60.304H104.843L104.267 76H64.7386V74.416H68.9866V27.184H64.7386V25.6Z" fill="black"/>
<path d="M123.432 76.72C121.368 76.72 119.808 76.12 118.752 74.92C117.744 73.672 117.24 72.184 117.24 70.456C117.24 68.68 117.768 67.192 118.824 65.992C119.928 64.792 121.464 64.192 123.432 64.192C125.4 64.192 126.96 64.696 128.112 65.704C129.264 66.712 129.84 68.224 129.84 70.24C129.84 72.256 129.288 73.84 128.184 74.992C127.128 76.144 125.544 76.72 123.432 76.72Z" fill="#BDC750"/>
</svg>
